<svg xmlns="http://www.w3.org/2000/svg" viewBox="100 80 460 230" fill="none"><path d="M156.699 264.679C164.332 258.497 171.852 253.082 180.792 249.32C189.577 245.624 198.633 243.4 208.379 241.269C205.935 234.053 201.733 228.246 198.463 222.008C194.283 214.034 191.084 205.882 189.341 196.931C187.838 189.214 186.757 181.569 186.829 173.756C186.89 166.992 189.267 164.125 195.988 163.755C206.273 163.19 216.601 162.843 226.774 165.222C231.624 166.357 232.738 165.5 232.734 160.428C232.727 151.103 232.137 141.69 234.639 132.607C237.208 123.283 239.41 113.702 247.089 106.723C251.057 103.117 255.48 101.209 260.833 100.572C275.232 98.8578 286.852 104.963 298.196 112.675C306.165 118.092 313.883 123.802 321.46 129.733C323.667 131.462 325.783 130.797 327.844 129.238C335.003 123.827 342.097 118.324 349.395 113.106C359.378 105.969 369.907 100.744 382.786 100.41C397.127 100.038 403.191 106.813 408.343 117.145C415.039 130.575 415.819 145.186 416.457 159.8C416.528 161.422 415.932 163.126 417.146 164.904C422.353 165.678 427.478 163.759 432.715 163.348C438.544 162.892 444.349 162.595 450.179 162.875C459.12 163.305 461.743 166.041 462.18 175.189C462.68 185.65 460.535 195.664 457.215 205.508C453.652 216.073 449.97 226.542 442.694 235.321C441.386 236.901 440.148 238.818 440.216 241.57C447.882 242.781 455.533 243.883 462.847 246.842C477.704 252.852 490.033 261.91 499.694 274.734C502.169 278.019 503.507 281.77 504.969 285.408C506.448 289.088 504.265 291.743 500.643 293.13C495.961 294.921 491.028 294.594 486.298 294.127C470.975 292.612 455.672 293.976 440.366 293.963C362.059 293.896 283.753 294.099 205.447 293.92C187.652 293.879 169.866 293.466 152.067 293.986C142.547 294.265 140.31 290.081 143.941 281.529C146.779 274.845 152.042 270.264 156.699 264.679ZM323.085 147.516C317.35 143.849 311.844 139.871 306.411 135.764C296.14 128 286.544 119.305 273.829 115.152C264.059 111.96 253.733 116.524 250.854 126.453C246.951 139.915 247.046 153.709 247.406 167.532C247.471 170.048 248.549 171.339 250.96 172.221C265.303 177.471 276.916 186.791 287.606 197.374C302.866 212.482 313.083 230.698 320.234 250.781C320.814 252.409 321.138 254.466 324.125 254.492C324.878 253.11 325.859 251.59 326.573 249.953C332.838 235.592 340.434 221.972 350.052 209.606C362.663 193.392 377.463 179.766 397.041 172.247C399.71 171.222 400.909 169.293 401.11 166.547C402.114 152.845 402.028 139.2 397.167 126.131C393.364 115.904 386.315 111.704 376.473 114.648C362.672 118.777 351.786 128.114 340.726 136.883C338.306 138.802 338.743 141.009 342.213 141.719C353.104 143.949 363.952 144.696 374.611 140.583C378.363 139.135 381.981 138.64 384.019 142.955C385.967 147.08 383.657 151.548 378.807 153.219C371.393 155.774 363.652 157.495 355.873 157.121C344.542 156.577 333.636 153.726 323.085 147.516ZM384.825 195.309C359.437 214.34 345.21 240.65 334.815 270.239C340.289 271.305 342.256 267.306 345.239 265.685C354.83 260.475 363.013 253.285 369.801 244.821C381.315 230.463 390.363 214.608 395.503 196.833C396.918 191.937 400.145 189.73 404.269 188.268C406.331 187.536 408.835 186.066 410.916 187.72C413.234 189.565 412.44 192.41 411.682 194.72C407.848 206.389 403.894 218.032 397.955 228.849C394.624 234.916 391.062 240.855 387.056 247.803C395.626 245.98 403.101 243.785 410.725 242.953C417.119 242.255 421.607 239.489 425.252 234.585C427.039 232.179 429.029 229.924 430.815 227.518C440.763 214.112 446.441 199.108 447.756 182.434C448.085 178.264 446.807 176.271 442.286 176.279C437.895 176.287 433.738 177.441 429.472 177.928C413.267 179.778 398.403 184.837 384.825 195.309ZM285.852 252.662C293.605 261.366 308.302 270.89 312.222 269.685C312.007 265.398 309.533 261.912 308.121 258.042C301.04 238.635 290.972 221.127 276.66 206.06C258.059 186.479 234.564 178.386 208.427 176.418C202.145 175.945 200.43 178.19 201.521 184.568C202.408 189.758 203.071 194.917 204.714 200.074C208.281 211.267 212.966 221.776 220.003 231.109C225.089 237.854 231.226 243.297 240.323 244.253C243.744 244.612 247.107 246.213 250.446 246.745C254.614 247.41 258.504 250.291 264.083 249.175C255.628 239.66 250.622 229.179 245.152 218.964C240.636 210.528 237.848 201.553 236.169 192.187C235.778 190 235.972 188.111 238.763 187.799C242.183 187.416 251.023 192.167 252.019 195.542C253.913 201.965 257.122 207.708 260.132 213.6C267.164 227.365 274.4 240.97 285.852 252.662ZM230.5 281.667C251.936 281.667 273.373 281.667 295.009 281.667C294.542 278.772 293.13 278.363 292.033 277.706C278.133 269.377 263.595 262.637 247.63 259.177C236.755 256.82 225.878 253.928 214.719 254.893C207.266 255.538 199.818 256.434 192.429 258.786C180.652 262.535 172.095 270.292 163.487 278.318C163.239 278.55 163.382 279.202 163.289 280.288C185.452 281.534 207.481 281.44 230.5 281.667ZM404.317 257.472C403.719 257.759 403.148 258.198 402.519 258.312C388.967 260.764 376.536 266.375 364.274 272.276C360.018 274.324 355.18 275.699 350.609 280.411C396.33 278.98 440.683 283.026 485.158 280.289C479.052 271.682 471.578 265.506 462.457 261.592C455.47 258.595 448.063 257.17 440.55 255.672C428.353 253.239 416.833 256.519 404.317 257.472Z" fill="#A1CBBE"></path></svg>