<svg width="624" height="624" viewBox="0 0 624 624" fill="none" xmlns="http://www.w3.org/2000/svg">
<path d="M156.699 264.679C164.332 258.497 171.852 253.082 180.792 249.32C189.577 245.624 198.633 243.4 208.379 241.269C205.935 234.053 201.733 228.246 198.463 222.008C194.283 214.034 191.084 205.882 189.341 196.931C187.838 189.214 186.757 181.569 186.829 173.756C186.89 166.992 189.267 164.125 195.988 163.755C206.273 163.19 216.601 162.843 226.774 165.222C231.624 166.357 232.738 165.5 232.734 160.428C232.727 151.103 232.137 141.69 234.639 132.607C237.208 123.283 239.41 113.702 247.089 106.723C251.057 103.117 255.48 101.209 260.833 100.572C275.232 98.8578 286.852 104.963 298.196 112.675C306.165 118.092 313.883 123.802 321.46 129.733C323.667 131.462 325.783 130.797 327.844 129.238C335.003 123.827 342.097 118.324 349.395 113.106C359.378 105.969 369.907 100.744 382.786 100.41C397.127 100.038 403.191 106.813 408.343 117.145C415.039 130.575 415.819 145.186 416.457 159.8C416.528 161.422 415.932 163.126 417.146 164.904C422.353 165.678 427.478 163.759 432.715 163.348C438.544 162.892 444.349 162.595 450.179 162.875C459.12 163.305 461.743 166.041 462.18 175.189C462.68 185.65 460.535 195.664 457.215 205.508C453.652 216.073 449.97 226.542 442.694 235.321C441.386 236.901 440.148 238.818 440.216 241.57C447.882 242.781 455.533 243.883 462.847 246.842C477.704 252.852 490.033 261.91 499.694 274.734C502.169 278.019 503.507 281.77 504.969 285.408C506.448 289.088 504.265 291.743 500.643 293.13C495.961 294.921 491.028 294.594 486.298 294.127C470.975 292.612 455.672 293.976 440.366 293.963C362.059 293.896 283.753 294.099 205.447 293.92C187.652 293.879 169.866 293.466 152.067 293.986C142.547 294.265 140.31 290.081 143.941 281.529C146.779 274.845 152.042 270.264 156.699 264.679ZM323.085 147.516C317.35 143.849 311.844 139.871 306.411 135.764C296.14 128 286.544 119.305 273.829 115.152C264.059 111.96 253.733 116.524 250.854 126.453C246.951 139.915 247.046 153.709 247.406 167.532C247.471 170.048 248.549 171.339 250.96 172.221C265.303 177.471 276.916 186.791 287.606 197.374C302.866 212.482 313.083 230.698 320.234 250.781C320.814 252.409 321.138 254.466 324.125 254.492C324.878 253.11 325.859 251.59 326.573 249.953C332.838 235.592 340.434 221.972 350.052 209.606C362.663 193.392 377.463 179.766 397.041 172.247C399.71 171.222 400.909 169.293 401.11 166.547C402.114 152.845 402.028 139.2 397.167 126.131C393.364 115.904 386.315 111.704 376.473 114.648C362.672 118.777 351.786 128.114 340.726 136.883C338.306 138.802 338.743 141.009 342.213 141.719C353.104 143.949 363.952 144.696 374.611 140.583C378.363 139.135 381.981 138.64 384.019 142.955C385.967 147.08 383.657 151.548 378.807 153.219C371.393 155.774 363.652 157.495 355.873 157.121C344.542 156.577 333.636 153.726 323.085 147.516ZM384.825 195.309C359.437 214.34 345.21 240.65 334.815 270.239C340.289 271.305 342.256 267.306 345.239 265.685C354.83 260.475 363.013 253.285 369.801 244.821C381.315 230.463 390.363 214.608 395.503 196.833C396.918 191.937 400.145 189.73 404.269 188.268C406.331 187.536 408.835 186.066 410.916 187.72C413.234 189.565 412.44 192.41 411.682 194.72C407.848 206.389 403.894 218.032 397.955 228.849C394.624 234.916 391.062 240.855 387.056 247.803C395.626 245.98 403.101 243.785 410.725 242.953C417.119 242.255 421.607 239.489 425.252 234.585C427.039 232.179 429.029 229.924 430.815 227.518C440.763 214.112 446.441 199.108 447.756 182.434C448.085 178.264 446.807 176.271 442.286 176.279C437.895 176.287 433.738 177.441 429.472 177.928C413.267 179.778 398.403 184.837 384.825 195.309ZM285.852 252.662C293.605 261.366 308.302 270.89 312.222 269.685C312.007 265.398 309.533 261.912 308.121 258.042C301.04 238.635 290.972 221.127 276.66 206.06C258.059 186.479 234.564 178.386 208.427 176.418C202.145 175.945 200.43 178.19 201.521 184.568C202.408 189.758 203.071 194.917 204.714 200.074C208.281 211.267 212.966 221.776 220.003 231.109C225.089 237.854 231.226 243.297 240.323 244.253C243.744 244.612 247.107 246.213 250.446 246.745C254.614 247.41 258.504 250.291 264.083 249.175C255.628 239.66 250.622 229.179 245.152 218.964C240.636 210.528 237.848 201.553 236.169 192.187C235.778 190 235.972 188.111 238.763 187.799C242.183 187.416 251.023 192.167 252.019 195.542C253.913 201.965 257.122 207.708 260.132 213.6C267.164 227.365 274.4 240.97 285.852 252.662ZM230.5 281.667C251.936 281.667 273.373 281.667 295.009 281.667C294.542 278.772 293.13 278.363 292.033 277.706C278.133 269.377 263.595 262.637 247.63 259.177C236.755 256.82 225.878 253.928 214.719 254.893C207.266 255.538 199.818 256.434 192.429 258.786C180.652 262.535 172.095 270.292 163.487 278.318C163.239 278.55 163.382 279.202 163.289 280.288C185.452 281.534 207.481 281.44 230.5 281.667ZM404.317 257.472C403.719 257.759 403.148 258.198 402.519 258.312C388.967 260.764 376.536 266.375 364.274 272.276C360.018 274.324 355.18 275.699 350.609 280.411C396.33 278.98 440.683 283.026 485.158 280.289C479.052 271.682 471.578 265.506 462.457 261.592C455.47 258.595 448.063 257.17 440.55 255.672C428.353 253.239 416.833 256.519 404.317 257.472Z" fill="#A1CBBE"></path>
<path d="M66.804 395.326C73.0964 400.617 81.4505 401.204 88.367 397.061C93.7737 393.823 98.9695 394.303 101.686 398.292C104.542 402.486 103.914 406.097 99.7239 409.57C85.7066 421.186 63.6557 418.423 51.5658 403.765C38.3167 387.703 43.4293 364.25 60.022 354.496C79.6904 342.934 103.976 351.262 111.613 373.282C112.525 375.912 112.892 378.798 113.089 381.595C113.457 386.833 110.089 390.337 104.681 390.379C93.8708 390.461 83.0596 390.386 72.2489 390.401C69.7774 390.405 67.2538 390.225 65.0561 391.626C64.4337 393.328 65.7085 394.109 66.804 395.326ZM93.0413 373.516C88.4164 366.325 81.4453 365.119 73.8716 366.619C68.8373 367.617 65.3329 370.924 63.3974 376.774C73.2218 376.774 82.2821 376.796 91.342 376.753C92.9424 376.745 93.8221 375.916 93.0413 373.516Z" fill="#99CDC0"></path>
<path d="M202.491 351.064C211.104 348.348 219.054 348.743 227.027 352.39C237.35 357.111 243.684 364.896 245.836 375.872C250.081 397.53 235.592 413.917 216.792 416.522C201.551 418.634 186.529 408.539 180.872 393.771C175.043 378.554 184.276 360.918 195.364 354.336C197.486 353.077 199.861 352.247 202.491 351.064ZM200.227 394.23C201.544 395.24 202.806 396.332 204.186 397.246C209.535 400.787 217.075 400.772 222.491 396.833C227.414 393.252 230.927 388.151 230.259 382.097C229.612 376.23 224.569 367.985 217.953 366.54C210.65 364.944 203.252 367.54 198.709 373.978C193.923 380.762 195.2 387.345 200.227 394.23Z" fill="#99CDC0"></path>
<path d="M494.589 349.375C517.733 348.83 531.861 363.83 531.935 384.287C531.988 399.107 520.338 412.52 505.895 415.834C490.952 419.262 477.2 412.397 469.042 399.415C456.961 380.189 469.825 352.675 494.589 349.375ZM492.553 366.765C480.834 372.567 477.621 383.491 484.741 393.326C489.628 400.078 499.897 402.2 506.475 397.817C515.538 391.778 518.075 383.141 513.219 374.849C509.122 367.853 502.212 364.952 492.553 366.765Z" fill="#99CDC0"></path>
<path d="M395.177 367.059C387.499 367.184 387.434 367.268 387.38 374.361C387.351 378.195 387.71 381.997 387.967 385.815C388.36 391.663 391.434 395.665 396.323 397.818C402.408 400.497 408.908 401.317 414.792 396.917C419.308 393.54 425.26 393.143 427.919 396.326C431.108 400.144 429.646 406.64 424.785 410.247C406.874 423.539 379.57 415.44 372.463 394.287C369.8 386.361 370.851 377.756 371.211 369.458C371.617 360.129 371.752 350.831 371.247 341.503C371.032 337.534 371.092 333.38 375.824 331.427C379.787 329.79 382.968 331.099 385.844 333.774C388.507 336.25 388.299 339.362 387.782 342.598C386.661 349.618 387.473 350.594 394.351 350.652C399.683 350.698 405.017 350.601 410.348 350.681C416.005 350.765 418.958 353.264 419.198 357.972C419.5 363.929 417.865 366.186 411.626 366.784C406.341 367.291 400.979 367.002 395.177 367.059Z" fill="#99CDC0"></path>
<path d="M344.824 352.508C352.228 348.674 357.915 351.46 358.167 359.091C358.48 368.576 359.093 378.181 358.016 387.555C355.965 405.411 345.182 415.708 327.066 416.765C312.407 417.621 297.399 404.802 294.887 389.306C293.28 379.388 293.991 369.35 294.14 359.37C294.218 354.132 298.041 350.734 302.683 350.724C307.653 350.713 311.003 354.089 311.145 359.886C311.341 367.878 311.301 375.88 311.143 383.874C310.997 391.219 315.017 395.792 321.101 398.6C326.513 401.099 331.905 399.922 336.589 396.339C341.238 392.782 342.086 387.266 342.447 382.083C342.989 374.29 342.606 366.431 342.59 358.601C342.586 356.422 342.377 354.206 344.824 352.508Z" fill="#99CDC0"></path>
<path d="M586.695 399.938C586.416 392.146 587.545 384.779 585.8 377.543C584.041 370.243 577.183 364.674 570.777 365.61C562.098 366.879 555.59 373.983 556.041 381.174C556.573 389.637 556.339 398.167 556.064 406.656C555.825 414.056 549.9 417.265 543.517 413.919C540.736 412.461 539.873 410.107 539.87 407.331C539.861 397.002 539.614 386.657 540.113 376.349C540.65 365.239 552.059 354.006 563.421 350.422C576.462 346.309 593.064 354.113 599.587 365.762C601.333 368.879 602.363 372.125 602.355 375.738C602.335 386.068 602.431 396.398 602.422 406.729C602.418 412.518 600.701 414.749 596.143 415.164C591.507 415.586 587.491 412.38 586.81 407.416C586.496 405.124 586.713 402.76 586.695 399.938Z" fill="#99CDC0"></path>
<path d="M152.479 371.514C154.905 365.647 157.267 360.181 160.404 355.067C162.963 350.896 167.831 349.201 171.805 351.333C176.335 353.765 177.062 358.104 175.039 363.012C170.92 373.006 165.947 382.575 161.34 392.326C158.514 398.307 155.743 404.332 152.559 410.123C148.595 417.334 140.924 417.555 137.046 410.335C131.584 400.165 126.741 389.66 121.698 379.267C119.095 373.903 116.597 368.486 114.116 363.064C111.585 357.532 113.098 353.082 118.284 350.542C121.917 348.761 126.765 351.028 129.154 355.952C133.565 365.041 137.805 374.214 142.097 383.361C142.591 384.414 142.925 385.554 144.902 386.311C148.396 382.173 149.671 376.621 152.479 371.514Z" fill="#99CDC0"></path>
<path d="M272.136 373C272.15 379.155 272.3 384.815 272.139 390.466C271.993 395.562 274.325 398.099 279.293 398.798C283.304 399.362 287.271 400.215 287.927 405.418C288.697 411.53 285.892 414.832 279.737 415.37C269.254 416.286 255.329 406.622 255.672 393.408C256.171 374.124 255.739 354.818 255.786 335.521C255.802 329.067 258.167 326.653 263.952 326.744C269.847 326.836 272.078 329.253 272.088 335.57C272.106 347.88 272.12 360.19 272.136 373Z" fill="#99CDC0"></path>
<path d="M454.328 371.004C454.343 382.819 454.388 394.135 454.36 405.451C454.345 411.274 451.387 415.008 446.738 415.286C441.59 415.593 437.992 411.961 437.849 405.533C437.616 395.054 437.749 384.567 437.751 374.083C437.753 369.091 437.633 364.09 437.889 359.11C438.186 353.321 441.265 349.982 445.788 350.021C451.036 350.066 454.248 353.591 454.341 359.522C454.399 363.182 454.336 366.844 454.328 371.004Z" fill="#99CDC0"></path>
<path d="M393.673 432.037C396.195 435.224 398.411 438.184 400.842 441.428C402.389 438.685 401.386 436.33 401.671 434.095C401.92 432.141 402.851 431.019 404.824 430.94C406.844 430.859 408.017 431.983 408.054 433.926C408.167 439.909 408.187 445.894 408.157 451.878C408.149 453.465 407.508 454.851 405.701 455.154C403.675 455.493 402.199 454.687 401.119 452.916C399.067 449.548 397.181 446.049 393.919 442.756C392.833 445.574 393.472 448.027 393.282 450.375C393.114 452.45 393.641 455.195 390.35 455.055C387.552 454.936 387.761 452.543 387.739 450.532C387.685 445.545 387.587 440.557 387.592 435.569C387.597 430.829 388.492 430.279 393.673 432.037Z" fill="#8B989C"></path>
<path d="M283.01 437.724C283.128 439.305 283.114 440.471 283.213 441.627C284.31 454.472 276.846 456.016 267.416 455.237C265.413 455.072 263.893 454.368 263.896 451.944C263.901 446.323 263.9 440.701 263.785 435.081C263.725 432.152 264.969 430.841 267.913 430.802C273.921 430.723 280.2 429.869 283.01 437.724ZM269.33 443.518C269.719 445.862 268.125 449.211 272.355 449.62C275.783 449.951 276.457 447.601 276.751 444.951C276.823 444.298 276.773 443.631 276.829 442.976C277.114 439.659 276.48 436.853 272.421 436.84C267.991 436.825 269.803 440.423 269.33 443.518Z" fill="#8B989C"></path>
<path d="M376.374 440.01C378.198 440.917 379.91 441.774 379.16 443.81C378.472 445.68 376.767 445.658 374.962 445.511C373.312 445.377 370.721 444.455 370.464 447.087C370.162 450.173 373.086 449.256 374.85 449.654C377.329 450.214 381.716 448.27 381.578 452.469C381.436 456.804 376.993 455.192 374.32 455.214C363.89 455.298 364.022 456.697 363.919 445.062C363.914 444.397 363.926 443.732 363.925 443.067C363.904 430.003 365.149 428.929 378.153 430.841C379.814 431.086 381.686 431.278 381.568 433.58C381.467 435.535 380.214 436.438 378.235 436.518C375.672 436.622 373.053 436.62 370.488 438.105C372.01 440.545 374.258 439.458 376.374 440.01Z" fill="#8B989C"></path>
<path d="M304.267 439.558C304.613 434.333 306.948 431.521 311.899 430.88C317.013 430.218 320.003 432.343 321.756 437.12C323.79 442.665 322.425 450.797 318.568 453.745C313.374 457.716 305.634 454.761 304.67 448.371C304.251 445.598 303.493 442.817 304.267 439.558ZM316.406 439.286C315.54 437.07 313.708 436.953 311.862 437.466C310.092 437.959 310.012 439.659 309.984 441.16C309.95 442.981 309.974 444.814 310.144 446.626C310.298 448.271 311.186 449.414 312.984 449.531C314.796 449.649 315.743 448.54 316.212 447.001C316.901 444.738 316.727 442.403 316.406 439.286Z" fill="#8B989C"></path>
<path d="M345.812 430.79C354.034 431.315 356.202 433.592 356.259 441.298C356.271 442.793 356.276 444.29 356.231 445.785C356.033 452.369 353.339 455.161 346.726 455.287C337.897 455.455 338.614 455.293 338.525 448.225C338.479 444.576 338.807 440.906 338.539 437.314C338.137 431.919 340.276 430.032 345.812 430.79ZM350.86 443.41C350.844 442.581 350.82 441.752 350.814 440.924C350.79 437.774 348.737 437.075 346.147 437.127C343.221 437.187 343.325 439.347 343.318 441.384C343.312 443.042 343.367 444.7 343.333 446.357C343.26 449.928 345.615 450.024 348.054 449.43C350.677 448.791 350.892 446.509 350.86 443.41Z" fill="#8B989C"></path>
<path d="M207.639 452.533C202.905 456.335 198.191 456.059 193.373 453.713C191.989 453.04 190.651 452.156 191.205 450.301C191.823 448.232 193.394 448.195 195.216 448.56C197.649 449.048 200.162 450.756 202.628 448.538C202.342 445.561 199.915 445.772 198.176 445.315C194.748 444.413 191.516 442.916 191.239 439.164C190.988 435.771 192.611 432.567 196.277 431.404C200.252 430.142 204.153 430.476 207.627 433.056C208.352 433.595 208.554 434.477 208.2 435.297C207.61 436.666 206.35 437.054 204.987 437.289C202.641 437.694 200.067 436.112 197.709 438.118C198.318 440.5 200.503 440.169 202.039 440.654C209.549 443.027 210.428 444.684 207.639 452.533Z" fill="#8B989C"></path>
<path d="M433.965 454.471C432.778 452.83 433.638 451.674 434.176 450.486C436.568 445.208 439.008 439.95 440.609 434.359C441.138 432.514 441.794 430.949 444.14 430.8C446.517 430.65 447.209 432.12 447.942 433.941C450.108 439.325 451.092 445.128 453.985 450.279C454.754 451.646 455.371 454.081 452.972 454.998C450.957 455.767 449.746 454.6 448.678 452.712C446.746 449.296 442.407 449.128 440.417 452.464C438.814 455.152 436.998 455.854 433.965 454.471Z" fill="#8B989C"></path>
<path d="M237.901 433.478C238.85 430.914 240.481 430.455 242.437 431.262C244.166 431.975 244.112 433.655 243.912 435.136C243.44 438.64 243.914 442.106 244.102 445.587C244.217 447.723 245.214 449.167 247.423 449.169C249.691 449.171 250.584 447.636 250.602 445.517C250.632 442.02 250.673 438.523 250.663 435.026C250.657 432.839 250.99 430.901 253.762 430.909C256.5 430.917 256.304 433.017 256.322 434.843C256.358 438.34 256.348 441.837 256.329 445.334C256.293 451.962 253.326 455.066 247.299 455.303C242.154 455.505 238.518 452.31 237.791 445.398C237.394 441.615 237.793 437.748 237.901 433.478Z" fill="#8B989C"></path>
<path d="M437.63 336.096C438.438 329.156 441.522 326.446 447.364 327.104C452.283 327.658 455.335 331.499 455.176 336.935C455.008 342.69 451.82 345.462 445.263 345.557C440.52 345.626 437.931 342.567 437.63 336.096Z" fill="#A1CABF"></path>
<path d="M420.22 452.326C420.015 448.738 419.82 445.576 419.873 442.418C419.924 439.353 420.39 436.281 416.026 435.702C414.887 435.551 413.942 434.556 414.095 433.154C414.273 431.527 415.491 430.875 416.9 430.845C421.229 430.753 425.562 430.763 429.893 430.802C431.16 430.813 432.152 431.443 432.407 432.793C432.702 434.353 431.979 435.668 430.511 435.796C425.865 436.2 426.111 439.422 426.164 442.69C426.21 445.522 426.148 448.355 426.109 451.187C426.087 452.744 425.837 454.279 424.146 454.881C422.162 455.587 420.98 454.589 420.22 452.326Z" fill="#8B989C"></path>
<path d="M227.524 430.764C229.484 430.817 231.073 430.769 231.385 432.814C231.656 434.592 230.809 435.73 229.163 436.193C226.244 437.014 226.031 439.235 226.081 441.702C226.132 444.197 226.199 446.703 226.031 449.188C225.873 451.508 226.759 454.911 223.113 455.014C219.476 455.117 219.998 451.815 219.944 449.408C219.88 446.582 219.826 443.732 220.116 440.929C220.387 438.309 220.427 436.273 216.992 436.07C215.321 435.971 214.195 434.82 214.316 433.061C214.449 431.108 216.032 430.811 217.6 430.788C220.761 430.742 223.923 430.765 227.524 430.764Z" fill="#8B989C"></path>
<path d="M463.845 431.08C467.891 434.817 466.023 439.437 465.804 443.44C465.515 448.701 467.148 450.439 472.123 449.682C473.091 449.535 474.117 449.71 475.11 449.806C477.002 449.99 477.609 451.313 477.578 452.949C477.545 454.634 476.283 455.211 474.852 455.234C471.192 455.294 467.53 455.268 463.869 455.226C462.126 455.206 460.975 454.337 460.947 452.516C460.85 446.36 460.787 440.204 460.79 434.048C460.791 432.398 461.536 431.156 463.845 431.08Z" fill="#8B989C"></path>
<path d="M296.237 444.966C296.212 447.781 296.291 450.114 296.127 452.43C296.01 454.081 295.106 455.272 293.237 455.178C291.365 455.085 290.684 453.828 290.641 452.151C290.495 446.522 290.264 440.891 290.323 435.263C290.344 433.343 290.742 430.89 293.471 431.011C296.186 431.132 296.204 433.467 296.229 435.499C296.267 438.492 296.238 441.485 296.237 444.966Z" fill="#8B989C"></path>
</svg>